<mxfile host="app.diagrams.net" modified="2023-11-11T14:30:09.674Z" agent="Mozilla/5.0 (Windows NT 10.0; Win64; x64) AppleWebKit/537.36 (KHTML, like Gecko) Chrome/119.0.0.0 Safari/537.36 Edg/119.0.0.0" etag="bUV38j8zFtRaVO4X1MXU" version="22.1.0" type="github">
  <diagram name="第 1 页" id="1AZYoFB7TXKLXRFwxyxi">
    <mxGraphModel dx="1001" dy="577" grid="1" gridSize="10" guides="1" tooltips="1" connect="1" arrows="1" fold="1" page="1" pageScale="1" pageWidth="3300" pageHeight="4681" math="0" shadow="0">
      <root>
        <mxCell id="0" />
        <mxCell id="1" parent="0" />
        <mxCell id="2ZKbca65MzW5oKJ104Ru-7" value="" style="rounded=0;orthogonalLoop=1;jettySize=auto;html=1;entryX=0;entryY=0.5;entryDx=0;entryDy=0;" edge="1" parent="1" source="2ZKbca65MzW5oKJ104Ru-1" target="2ZKbca65MzW5oKJ104Ru-6">
          <mxGeometry relative="1" as="geometry">
            <mxPoint x="290" y="215" as="targetPoint" />
          </mxGeometry>
        </mxCell>
        <mxCell id="2ZKbca65MzW5oKJ104Ru-10" value="" style="edgeStyle=orthogonalEdgeStyle;rounded=0;orthogonalLoop=1;jettySize=auto;html=1;entryX=0;entryY=0.5;entryDx=0;entryDy=0;" edge="1" parent="1" source="2ZKbca65MzW5oKJ104Ru-1" target="2ZKbca65MzW5oKJ104Ru-4">
          <mxGeometry relative="1" as="geometry">
            <mxPoint x="290" y="215" as="targetPoint" />
          </mxGeometry>
        </mxCell>
        <mxCell id="2ZKbca65MzW5oKJ104Ru-11" value="" style="rounded=0;orthogonalLoop=1;jettySize=auto;html=1;entryX=0;entryY=0.5;entryDx=0;entryDy=0;" edge="1" parent="1" source="2ZKbca65MzW5oKJ104Ru-1" target="2ZKbca65MzW5oKJ104Ru-5">
          <mxGeometry relative="1" as="geometry">
            <mxPoint x="195" y="325" as="targetPoint" />
          </mxGeometry>
        </mxCell>
        <mxCell id="2ZKbca65MzW5oKJ104Ru-18" value="" style="rounded=0;orthogonalLoop=1;jettySize=auto;html=1;" edge="1" parent="1" source="2ZKbca65MzW5oKJ104Ru-1">
          <mxGeometry relative="1" as="geometry">
            <mxPoint x="350" y="370" as="targetPoint" />
          </mxGeometry>
        </mxCell>
        <mxCell id="2ZKbca65MzW5oKJ104Ru-1" value="管理员" style="shape=umlActor;verticalLabelPosition=bottom;verticalAlign=top;html=1;outlineConnect=0;" vertex="1" parent="1">
          <mxGeometry x="180" y="185" width="30" height="60" as="geometry" />
        </mxCell>
        <mxCell id="2ZKbca65MzW5oKJ104Ru-9" value="" style="edgeStyle=orthogonalEdgeStyle;rounded=0;orthogonalLoop=1;jettySize=auto;html=1;endArrow=none;endFill=0;" edge="1" parent="1" source="2ZKbca65MzW5oKJ104Ru-2">
          <mxGeometry relative="1" as="geometry">
            <mxPoint x="520" y="100" as="targetPoint" />
          </mxGeometry>
        </mxCell>
        <mxCell id="2ZKbca65MzW5oKJ104Ru-2" value="新闻类别管理" style="ellipse;whiteSpace=wrap;html=1;" vertex="1" parent="1">
          <mxGeometry x="480" y="120" width="90" height="50" as="geometry" />
        </mxCell>
        <mxCell id="2ZKbca65MzW5oKJ104Ru-8" value="" style="edgeStyle=orthogonalEdgeStyle;rounded=0;orthogonalLoop=1;jettySize=auto;html=1;entryX=0.5;entryY=0;entryDx=0;entryDy=0;endArrow=block;endFill=0;" edge="1" parent="1" source="2ZKbca65MzW5oKJ104Ru-3" target="2ZKbca65MzW5oKJ104Ru-6">
          <mxGeometry relative="1" as="geometry">
            <mxPoint x="645" y="40" as="targetPoint" />
            <Array as="points">
              <mxPoint x="645" y="100" />
              <mxPoint x="395" y="100" />
            </Array>
          </mxGeometry>
        </mxCell>
        <mxCell id="2ZKbca65MzW5oKJ104Ru-3" value="新闻发布管理" style="ellipse;whiteSpace=wrap;html=1;" vertex="1" parent="1">
          <mxGeometry x="600" y="120" width="90" height="50" as="geometry" />
        </mxCell>
        <mxCell id="2ZKbca65MzW5oKJ104Ru-4" value="用户管理" style="ellipse;whiteSpace=wrap;html=1;" vertex="1" parent="1">
          <mxGeometry x="350" y="190" width="90" height="50" as="geometry" />
        </mxCell>
        <mxCell id="2ZKbca65MzW5oKJ104Ru-5" value="评论管理" style="ellipse;whiteSpace=wrap;html=1;" vertex="1" parent="1">
          <mxGeometry x="350" y="260" width="90" height="50" as="geometry" />
        </mxCell>
        <mxCell id="2ZKbca65MzW5oKJ104Ru-6" value="新闻管理" style="ellipse;whiteSpace=wrap;html=1;" vertex="1" parent="1">
          <mxGeometry x="350" y="120" width="90" height="50" as="geometry" />
        </mxCell>
        <mxCell id="2ZKbca65MzW5oKJ104Ru-17" value="" style="rounded=0;orthogonalLoop=1;jettySize=auto;html=1;entryX=0;entryY=0.5;entryDx=0;entryDy=0;" edge="1" parent="1" source="2ZKbca65MzW5oKJ104Ru-12" target="2ZKbca65MzW5oKJ104Ru-16">
          <mxGeometry relative="1" as="geometry">
            <mxPoint x="290" y="420" as="targetPoint" />
          </mxGeometry>
        </mxCell>
        <mxCell id="2ZKbca65MzW5oKJ104Ru-19" value="" style="rounded=0;orthogonalLoop=1;jettySize=auto;html=1;entryX=0;entryY=0.5;entryDx=0;entryDy=0;" edge="1" parent="1" source="2ZKbca65MzW5oKJ104Ru-12" target="2ZKbca65MzW5oKJ104Ru-15">
          <mxGeometry relative="1" as="geometry">
            <mxPoint x="290" y="420" as="targetPoint" />
          </mxGeometry>
        </mxCell>
        <mxCell id="2ZKbca65MzW5oKJ104Ru-20" value="" style="rounded=0;orthogonalLoop=1;jettySize=auto;html=1;entryX=0;entryY=0.5;entryDx=0;entryDy=0;" edge="1" parent="1" source="2ZKbca65MzW5oKJ104Ru-12" target="2ZKbca65MzW5oKJ104Ru-13">
          <mxGeometry relative="1" as="geometry">
            <mxPoint x="195" y="530" as="targetPoint" />
          </mxGeometry>
        </mxCell>
        <mxCell id="2ZKbca65MzW5oKJ104Ru-12" value="普通用户" style="shape=umlActor;verticalLabelPosition=bottom;verticalAlign=top;html=1;outlineConnect=0;" vertex="1" parent="1">
          <mxGeometry x="180" y="390" width="30" height="60" as="geometry" />
        </mxCell>
        <mxCell id="2ZKbca65MzW5oKJ104Ru-13" value="发布评论" style="ellipse;whiteSpace=wrap;html=1;" vertex="1" parent="1">
          <mxGeometry x="350" y="480" width="90" height="50" as="geometry" />
        </mxCell>
        <mxCell id="2ZKbca65MzW5oKJ104Ru-15" value="浏览新闻" style="ellipse;whiteSpace=wrap;html=1;" vertex="1" parent="1">
          <mxGeometry x="350" y="410" width="90" height="50" as="geometry" />
        </mxCell>
        <mxCell id="2ZKbca65MzW5oKJ104Ru-16" value="登录" style="ellipse;whiteSpace=wrap;html=1;" vertex="1" parent="1">
          <mxGeometry x="350" y="340" width="90" height="50" as="geometry" />
        </mxCell>
      </root>
    </mxGraphModel>
  </diagram>
</mxfile>
